<svg xmlns="http://www.w3.org/2000/svg"><defs><style>.a{fill:none;stroke:#000;}.a,.d,.e,.f{stroke-miterlimit:10;}.b{font-size:18px;font-family:MyriadPro-Regular, Myriad Pro;}.c{font-size:12px;}.d{fill:#2f15ff;}.d,.e,.f{stroke:#231f20;stroke-linecap:round;opacity:0.4;}.e{fill:#6a0062;}.f{fill:#0047aa;}</style></defs><path class="a" d="M94.19,324" transform="translate(-327.16 -103.31)"/><line class="a" y1="152.13" x2="296.9" y2="152.13"/><path d="M630.1,255.44a30.18,30.18,0,0,0-8.55,4.75l1.72-4.75-1.72-4.76A30.2,30.2,0,0,0,630.1,255.44Z" transform="translate(-327.16 -103.31)"/><line class="a" x1="272.33" y1="137.48" x2="272.33" y2="165.46"/><line class="a" x1="211.9" y1="137.48" x2="211.9" y2="165.46"/><line class="a" x1="91.2" y1="137.48" x2="91.2" y2="165.46"/><line class="a" x1="30.94" y1="138.39" x2="30.94" y2="166.37"/><line class="a" x1="151.22" y1="302.93" x2="151.22" y2="6.04"/><path d="M478.38,103.31a30.1,30.1,0,0,0,4.76,8.55l-4.76-1.72-4.75,1.72A30.31,30.31,0,0,0,478.38,103.31Z" transform="translate(-327.16 -103.31)"/><line class="a" x1="136.57" y1="30.61" x2="164.55" y2="30.61"/><line class="a" x1="136.57" y1="91.04" x2="164.55" y2="91.04"/><line class="a" x1="136.57" y1="211.73" x2="164.55" y2="211.73"/><line class="a" x1="137.48" y1="272" x2="165.46" y2="272"/><text class="b" transform="translate(166.82 279.29)">R<tspan class="c" x="9.68" y="0"> </tspan></text><text class="b" transform="translate(25.64 182.79)">R<tspan class="c" x="9.68" y="0"> </tspan></text><text class="b" transform="translate(165.46 37.09)">R<tspan class="c" x="9.68" y="0"> </tspan></text><text class="b" transform="translate(267.36 182.79)">R<tspan class="c" x="9.68" y="0"> </tspan></text><text class="b" transform="translate(75.31 182.79)">R / 2</text><text class="b" transform="translate(166.82 93.68)">R / 2</text><text class="b" transform="translate(198.59 182.79)">R / 2</text><text class="b" transform="translate(166.82 215.24)">R / 2</text><rect class="d" x="151.47" y="30.61" width="121.77" height="121.77"/><path class="e" d="M418.36,254.77c0-33.4,26.55-60.43,59.36-60.43v60.43Z" transform="translate(-327.16 -103.31)"/><polyline class="f" points="150.56 211.73 150.56 152.38 273.24 152.38"/></svg>